<?xml version="1.0" encoding="UTF-8" standalone="no"?>
<svg width="209px" height="210px" viewBox="0 0 209 210" version="1.1" xmlns="http://www.w3.org/2000/svg" xmlns:xlink="http://www.w3.org/1999/xlink" xmlns:sketch="http://www.bohemiancoding.com/sketch/ns">
    <!-- Generator: Sketch Beta 3.3.2 (12041) - http://www.bohemiancoding.com/sketch -->
    <title>Rocket + Rocket</title>
    <desc>Created with Sketch Beta.</desc>
    <defs>
        <linearGradient x1="0%" y1="50%" x2="100%" y2="50%" id="linearGradient-1">
            <stop stop-color="#FFD400" offset="0%"></stop>
            <stop stop-color="#FF3F00" offset="100%"></stop>
        </linearGradient>
    </defs>
    <g id="Page-1" stroke="none" stroke-width="1" fill="none" fill-rule="evenodd" sketch:type="MSPage">
        <g id="Rocket-+-Rocket" sketch:type="MSLayerGroup" transform="translate(-39.000000, -52.000000)">
            <g id="Rocket" transform="translate(150.000000, 153.500000) rotate(-45.000000) translate(-150.000000, -153.500000) translate(6.521739, 84.914894)" sketch:type="MSShapeGroup">
                <path d="M58.782748,0.575110263 L118.388959,0.0582369326 L140.105578,21.592002 L141.169883,43.1432585 L82.7128809,45.5387172 L82.4847544,24.6346455 L58.782748,0.575110263 Z" id="Flank-1" fill="#FF0000"></path>
                <path d="M58.782748,90.519141 L118.388959,90.0022677 L140.105578,111.536033 L141.169883,133.087289 L82.7128809,135.482748 L82.4847544,114.578676 L58.782748,90.519141 Z" id="Flank-2" fill="#FF0000" transform="translate(99.962125, 112.741726) scale(1, -1) translate(-99.962125, -112.741726) "></path>
                <path d="M61.7375113,97.3079857 C81.4633237,97.3079857 90.2352951,91.886914 90.2352951,67.9315236 C90.2352951,43.9761332 81.4633237,38.5550614 61.7375113,38.5550614 C42.0116988,38.5550614 8.89741151,69.7288872 8.89741151,69.7288872 C8.89741151,69.7288872 42.0116988,97.3079857 61.7375113,97.3079857 Z" id="Fire" fill="url(#linearGradient-1)"></path>
                <path d="M164.377937,117.008325 C221.6262,117.008325 281.642023,66.1836756 281.642023,66.1836756 C281.642023,66.1836756 221.6262,18.4610845 164.377937,18.4610845 C107.129675,18.4610845 65.6819425,47.1633458 65.6819425,67.7347033 C65.6819425,88.3060608 107.129675,117.008325 164.377937,117.008325 Z" id="Body" fill="#D8D8D8"></path>
                <ellipse id="Window" fill="#494949" cx="195.410536" cy="66.4365294" rx="21.744423" ry="22.1743205"></ellipse>
                <path d="M49.7394065,67.9573553 L63.9384832,51.7411666 L146.990548,57.0350604 L155.939455,66.2508762 L127.920331,66.7122167 L155.904202,66.2665352 L147.120145,75.7445915 L64.3075466,84.0516984 L49.7399787,67.9994718 L49.7019809,68.0000975 L49.7209187,67.9784693 L49.7022939,67.9579463 L49.7394065,67.9573553 Z" id="Flank-3" fill="#F21616"></path>
            </g>
        </g>
    </g>
</svg>